<svg width="176" height="31" viewBox="0 0 176 31" fill="none" xmlns="http://www.w3.org/2000/svg">
    <path
        d="M0.508 30V9.144H6.008L6.228 11.168C7.22533 10.4053 8.31067 9.804 9.484 9.364C10.6867 8.924 11.9773 8.704 13.356 8.704C14.8227 8.704 15.952 8.924 16.744 9.364C17.5653 9.804 18.196 10.4347 18.636 11.256C19.604 10.4933 20.704 9.87733 21.936 9.408C23.1973 8.93867 24.6787 8.704 26.38 8.704C28.7853 8.704 30.56 9.33467 31.704 10.596C32.848 11.828 33.42 13.72 33.42 16.272V30H27.568V16.932C27.568 15.5533 27.2747 14.5707 26.688 13.984C26.1013 13.368 25.1627 13.06 23.872 13.06C22.112 13.06 20.6453 13.6907 19.472 14.952C19.6187 15.4507 19.692 16.052 19.692 16.756V30H14.148V16.932C14.148 15.6413 13.928 14.6733 13.488 14.028C13.048 13.3827 12.1973 13.06 10.936 13.06C10.056 13.06 9.22 13.2947 8.428 13.764C7.66533 14.204 6.976 14.7173 6.36 15.304V30H0.508ZM42.4575 30.44C39.9642 30.44 38.0135 29.7507 36.6055 28.372C35.2269 26.964 34.5375 24.9107 34.5375 22.212V9.144H40.4775V22.08C40.4775 23.488 40.8149 24.5147 41.4895 25.16C42.1642 25.776 43.1762 26.084 44.5255 26.084C45.5522 26.084 46.4909 25.8787 47.3415 25.468C48.2215 25.0573 48.9695 24.544 49.5855 23.928V9.144H55.5255V30H50.0255L49.8055 28.02C48.9255 28.724 47.8842 29.3107 46.6815 29.78C45.5082 30.22 44.1002 30.44 42.4575 30.44ZM64.4097 30.44C62.8551 30.44 61.3737 30.3227 59.9657 30.088C58.5577 29.8827 57.4284 29.6187 56.5777 29.296V24.368C57.6044 24.7787 58.7631 25.1013 60.0537 25.336C61.3444 25.5413 62.5324 25.644 63.6177 25.644C65.0844 25.644 66.1111 25.556 66.6978 25.38C67.3138 25.204 67.6217 24.808 67.6217 24.192C67.6217 23.488 67.1524 22.9747 66.2137 22.652C65.3044 22.3293 63.9404 21.8747 62.1217 21.288C60.2151 20.6427 58.7484 19.8653 57.7217 18.956C56.6951 18.0467 56.1817 16.6973 56.1817 14.908C56.1817 12.9133 56.9004 11.388 58.3377 10.332C59.8044 9.24667 62.1511 8.704 65.3777 8.704C66.6684 8.704 67.8858 8.80667 69.0298 9.012C70.1738 9.188 71.1418 9.408 71.9337 9.672V14.556C71.1418 14.1747 70.2324 13.896 69.2057 13.72C68.1791 13.5147 67.2257 13.412 66.3457 13.412C65.0844 13.412 64.0724 13.5 63.3097 13.676C62.5764 13.852 62.2097 14.2333 62.2097 14.82C62.2097 15.4653 62.6057 15.92 63.3977 16.184C64.2191 16.448 65.4804 16.844 67.1817 17.372C68.8537 17.8707 70.1591 18.4133 71.0977 19C72.0364 19.5867 72.6964 20.2907 73.0778 21.112C73.4591 21.904 73.6497 22.9013 73.6497 24.104C73.6497 28.328 70.5697 30.44 64.4097 30.44ZM84.4762 30.44C80.8682 30.44 78.0082 29.5453 75.8962 27.756C73.7842 25.9373 72.7282 23.1947 72.7282 19.528C72.7282 16.2133 73.6082 13.588 75.3682 11.652C77.1575 9.68667 79.8122 8.704 83.3322 8.704C86.5588 8.704 89.0228 9.55467 90.7242 11.256C92.4548 12.928 93.3202 15.128 93.3202 17.856V21.64H78.2282C78.5508 23.312 79.3135 24.456 80.5162 25.072C81.7482 25.688 83.4788 25.996 85.7082 25.996C86.8228 25.996 87.9522 25.8933 89.0962 25.688C90.2695 25.4827 91.2668 25.2187 92.0882 24.896V29.12C91.1202 29.56 89.9908 29.8827 88.7002 30.088C87.4095 30.3227 86.0015 30.44 84.4762 30.44ZM78.2282 17.988H88.1282V16.844C88.1282 15.6413 87.7762 14.7027 87.0722 14.028C86.3682 13.324 85.1802 12.972 83.5082 12.972C81.5428 12.972 80.1642 13.368 79.3722 14.16C78.6095 14.952 78.2282 16.228 78.2282 17.988Z"
        fill="#FEED01" />
    <path
        d="M94.5078 30V9.144H97.7638L97.9838 11.52C99.0985 10.64 100.272 9.95067 101.504 9.452C102.765 8.95333 104.114 8.704 105.552 8.704C107.106 8.704 108.309 8.95333 109.16 9.452C110.04 9.95067 110.685 10.6547 111.096 11.564C112.093 10.7427 113.237 10.068 114.528 9.54C115.818 8.98267 117.358 8.704 119.148 8.704C121.524 8.704 123.284 9.32 124.428 10.552C125.601 11.7547 126.188 13.6173 126.188 16.14V30H122.624V16.492C122.624 14.644 122.228 13.368 121.436 12.664C120.673 11.96 119.426 11.608 117.696 11.608C116.552 11.608 115.452 11.7987 114.396 12.18C113.369 12.5613 112.489 13.148 111.756 13.94C111.932 14.6733 112.02 15.524 112.02 16.492V30H108.632V16.58C108.632 14.82 108.338 13.5587 107.752 12.796C107.165 12.004 106.006 11.608 104.276 11.608C103.102 11.608 101.973 11.872 100.888 12.4C99.8318 12.8987 98.8931 13.5293 98.0718 14.292V30H94.5078ZM129.276 4.26V0.959999H133.28V4.26H129.276ZM129.628 30V12.004H126.416L126.768 9.144H133.236V30H129.628ZM135.937 30V9.144H139.193L139.413 11.52C140.41 10.6987 141.569 10.024 142.889 9.496C144.238 8.968 145.778 8.704 147.509 8.704C150.149 8.704 152.07 9.32 153.273 10.552C154.475 11.784 155.077 13.72 155.077 16.36V30H151.469V16.492C151.469 14.6733 151.102 13.412 150.369 12.708C149.635 11.9747 148.227 11.608 146.145 11.608C144.854 11.608 143.637 11.8427 142.493 12.312C141.349 12.7813 140.366 13.4267 139.545 14.248V30H135.937ZM165.359 30.44C162.425 30.44 160.123 29.6333 158.451 28.02C156.779 26.3773 155.943 23.664 155.943 19.88C155.943 16.1253 156.808 13.324 158.539 11.476C160.299 9.628 162.645 8.704 165.579 8.704C168.189 8.704 170.448 9.364 172.355 10.684V0.343999H175.963V30H172.883L172.619 27.8C171.651 28.7093 170.58 29.384 169.407 29.824C168.263 30.2347 166.913 30.44 165.359 30.44ZM166.283 27.536C167.485 27.536 168.6 27.3307 169.627 26.92C170.653 26.5093 171.563 25.8787 172.355 25.028V13.676C171.621 13.0307 170.756 12.532 169.759 12.18C168.761 11.7987 167.632 11.608 166.371 11.608C164.053 11.608 162.337 12.2827 161.223 13.632C160.108 14.952 159.551 17.0347 159.551 19.88C159.551 22.608 160.064 24.5733 161.091 25.776C162.117 26.9493 163.848 27.536 166.283 27.536Z"
        fill="white" />
</svg>